# xmcd CD database file
#
# Track frame offsets:
#	150
#	18742
#	48985
#
# Disc length: 899 seconds
#
# Revision: 0
# Processed by: cddbd v1.5.1PL0 Copyright (c) Steve Scherf et al.
# Submitted via: CDex 1.51
#
DISCID=1f038103
DTITLE=布袋寅泰 - DESTINY ROSE
DYEAR=2002
DGENRE=Rock
TTITLE0=DESTINY ROSE
TTITLE1=SCORPIO RISING - SPEEDKING mix-
TTITLE2=DESTINY ROSE - Instrumental -
EXTD=YEAR: 2002
EXTT0=
EXTT1=
EXTT2=
PLAYORDER=
